- 
http://www.Speed.Cd 
       
http://www.Speed.Cd       the fast  and The Hottest Private Tracker on the net

(((--Registration will be open on june every weekend--)))

Please Seed back to make the speed Faster!!!

------------------nfo--------------------------
-                                                                                                     
       
     
     
       
       
     
     
                                         
                                         
                EXVID                    
                                         
         
                                         
         Filled the Archives             
                                         
         
                                         
                With:                    
                                         
         
                                         
                                    
     E240                           
                                    
     SP               (C) 2009      
                                         
     
     
     
                                                                                  
                                                                                   
           Heavens.Gate.1980.Theatrical.Cut.DVDRip.XviD-EXViD                       
                                                                                   
                                                                                  
     
                                                                                               
EXViD aims to iNTERNAL those releases which have been lost in the archives.
EXViD aims to PRE non-internal releases which have poor sources and are likely skipped by others. 
http://www.imdb.com/title/tt0080855/
Subtitles: FR, SP, IT, EN, NL
Date: 2011.07

Director: Michael Cimino

Genres: Drama | History | Western

Plot:
Michael Cimino's bleak anti-western based on events in 1890s Wyoming. Sheriff James Averill
attempts to protect immigrant farmers from wealthy cattle interests, and also clashes with a
hired gun, Nathan Champion, over the woman they both love, Ella Watson. Both men find themselves
questioning their roles in the furious conflict between wealthy landowners and European immigrants
attempting to build new lives on the American frontier, which culminates in a brutal pitched battle.

Cast:
Kris Kristofferson 	 ... 	 James Averill 
Christopher Walken 	 ... 	Nathan D. Champion 
John Hurt 	 ... 	Billy Irvine 
Sam Waterston 	 ... 	 Frank Canton 
Brad Dourif 	 ... 	Mr. Eggleston 
Isabelle Huppert 	 ... 	 Ella Watson 
Joseph Cotten 	 ... 	The Reverend Doctor 
Jeff Bridges 	 ... 	 John L. Bridges 
Ronnie Hawkins 	 ... 	 Major Wolcott 
Paul Koslo 	 ... 	 Mayor Charlie Lezak 
Geoffrey Lewis 	 ... 	 Trapper Fred 
Richard Masur 	 ... 	 Cully 
Rosie Vela 	 ... 	 Beautiful girl (as Roseanne Vela) 
Mary Catherine Wright 	 ... 	 Nell (as Mary C. Wright) 
Nicholas Woodeson 	 ... 	 Small man

Stats:
Format                           : AVI
Format/Info                      : Audio Video Interleave
File size                        : 1.37 GiB
Duration                         : 2h 23mn
Overall bit rate                 : 1 361 Kbps
Writing application              : Nandub v1.0rc2
Writing library                  : Nandub build 1852/release

Video
ID                               : 0
Format                           : MPEG-4 Visual
Format profile                   : Advanced Simple@L5
Format settings, BVOP            : No
Format settings, QPel            : No
Format settings, GMC             : No warppoints
Format settings, Matrix          : Default (H.263)
Codec ID                         : XVID
Codec ID/Hint                    : XviD
Duration                         : 2h 23mn
Bit rate                         : 1 229 Kbps
Width                            : 640 pixels
Height                           : 272 pixels
Display aspect ratio             : 2.35:1
Frame rate                       : 25.000 fps
Color space                      : YUV
Chroma subsampling               : 4:2:0
Bit depth                        : 8 bits
Scan type                        : Progressive
Compression mode                 : Lossy
Bits/(Pixel*Frame)               : 0.282
Stream size                      : 1.24 GiB (90%)
Writing library                  : XviD 64

Audio
ID                               : 1
Format                           : MPEG Audio
Format version                   : Version 1
Format profile                   : Layer 3
Mode                             : Joint stereo
Mode extension                   : MS Stereo
Codec ID                         : 55
Codec ID/Hint                    : MP3
Duration                         : 2h 23mn
Bit rate mode                    : Variable
Bit rate                         : 119 Kbps
Nominal bit rate                 : 128 Kbps
Channel(s)                       : 2 channels
Sampling rate                    : 48.0 KHz
Compression mode                 : Lossy
Stream size                      : 123 MiB (9%)
Alignment                        : Aligned on interleaves
Interleave, duration             : 24 ms (0.60 video frame)
Interleave, preload duration     : 148 ms
Writing library                  : LAME3.98r
Encoding settings                : -m j -V 4 -q 3 -lowpass 17 --abr 128




Release notes:
VCDVaULT released the 219 min original cut back in 2003. This is the 149 min re-cut.

For some nice background info on the movie's troubled production and release, check out the
documentary "Final Cut: The Making and Unmaking of Heaven's Gate" on YouTube.

enjoy!

Looking for:
75TB+ Archives
DUTCH/FLEMiSH Archives
                                                                                                    
Greets: CRBS EPiSODE FiCO FLS iLS KLASSiGER LiPSYNC MADE NODLABS RUNNER SPRiNTER      
   

                                                                    ASCII DONE BY XX^NFO 2oo9